<svg width="70" height="51" viewBox="0 0 70 51" fill="none" xmlns="http://www.w3.org/2000/svg"><path d="M26.29 10.289c1.614-3.16 6.13-3.16 7.744 0l2.045 4a4.35 4.35 0 0 0 3.19 2.315l4.43.704c3.51.557 4.907 4.859 2.394 7.37L42.93 27.84a4.35 4.35 0 0 0-1.22 3.755l.697 4.418c.554 3.507-3.1 6.164-6.265 4.557l-4.012-2.038a4.349 4.349 0 0 0-3.939 0l-4.011 2.038c-3.166 1.607-6.82-1.05-6.266-4.557l.698-4.418a4.349 4.349 0 0 0-1.22-3.755l-3.162-3.16c-2.513-2.512-1.116-6.814 2.393-7.371l4.43-.704a4.35 4.35 0 0 0 3.19-2.316l2.045-4Z" fill="#FFE553"/><path d="m5.54 32.725-.035.008c.004.118-.001.596-.017 1.434-.005.835-.006 1.383-.004 1.645 0 .25-.005.454-.016.612l.002.535a3.609 3.609 0 0 1-.03.472l-.03.33c-.023.207-.068.319-.135.335-.147.035-.376-.078-.688-.338-.315-.272-.496-.509-.544-.712-.049-.203-.061-1.69-.038-4.46.034-2.772-.041-4.596-.224-5.47a.662.662 0 0 1 .022-.434c.057-.264.35-.512.878-.744.54-.235 1.347-.479 2.42-.732 1.083-.256 1.943-.4 2.58-.43.647-.034.995.05 1.043.254.032.135-.041.254-.22.356a9.318 9.318 0 0 1-.476.255c-.141.057-.326.13-.555.22a43.64 43.64 0 0 0-.645.224c-.2.06-.46.145-.78.256-.307.108-.593.211-.856.31-.265.086-.623.212-1.072.378-.45.165-.74.27-.873.313.019.031.037.08.053.148.125.53.194 1.801.206 3.813a17.51 17.51 0 0 0 2.24-.583c.796-.26 1.285-.41 1.466-.453.429-.101.665-.062.707.119.083.35-.338.759-1.264 1.228-.915.466-1.953.836-3.116 1.11Zm11.052-3.11a3.211 3.211 0 0 0-.443-1.04c-.207-.32-.448-.531-.722-.633-.729.398-1.257 1.16-1.586 2.287-.32 1.112-.377 2.103-.172 2.972.206.868.55 1.36 1.029 1.473.775-.35 1.333-1.066 1.672-2.147.349-1.095.423-2.066.222-2.912Zm-4.417 1.204c.187-.974.529-1.817 1.027-2.531.507-.727 1.094-1.17 1.76-1.327.677-.16 1.31-.005 1.898.464.585.457.975 1.098 1.17 1.922.193.812.193 1.694.002 2.645a6.013 6.013 0 0 1-1.141 2.504c-.558.715-1.226 1.165-2.005 1.349-.575.136-1.118-.016-1.628-.456-.509-.44-.86-1.066-1.053-1.879-.195-.823-.205-1.72-.03-2.691Zm12.089-3.015a3.213 3.213 0 0 0-.443-1.04c-.207-.32-.448-.531-.722-.633-.728.398-1.257 1.16-1.586 2.286-.32 1.113-.378 2.103-.172 2.972.206.87.55 1.36 1.029 1.474.775-.35 1.333-1.066 1.672-2.147.349-1.095.423-2.066.222-2.912Zm-4.417 1.203c.187-.973.529-1.817 1.027-2.53.507-.728 1.094-1.17 1.76-1.327.677-.16 1.31-.005 1.898.463.585.458.975 1.099 1.17 1.923.193.812.193 1.694.001 2.645a6.013 6.013 0 0 1-1.14 2.504c-.558.715-1.226 1.165-2.005 1.349-.575.136-1.118-.016-1.628-.456-.509-.44-.86-1.066-1.053-1.879-.195-.824-.205-1.72-.03-2.692Zm12.417-11.136c.18-.042.44.075.78.353.349.263.558.541.628.835.069.293.126 1.161.17 2.605.041 1.432.05 2.925.025 4.48-.031 3.488-.177 5.262-.437 5.323-.158.037-.355-.017-.593-.164-.229-.16-.36-.314-.395-.46-.035-.147-.065-.45-.09-.909-.839 1.39-1.67 2.182-2.494 2.376-.497.118-1.002-.001-1.515-.357-.502-.358-.81-.78-.926-1.265-.166-.7-.176-1.573-.031-2.62a8.938 8.938 0 0 1 1.016-3.029c.524-.958 1.187-1.531 1.988-1.72.802-.19 1.474.158 2.018 1.043.008-2.528-.124-4.493-.396-5.895-.08-.338.003-.537.252-.595Zm.107 8.752c-.144-.61-.373-1.098-.687-1.465-.302-.37-.6-.52-.893-.45-.485.114-.911.53-1.277 1.249a7.426 7.426 0 0 0-.73 2.353c-.111.836-.1 1.537.034 2.101.048.203.16.35.336.439a.81.81 0 0 0 .569.062c.44-.104.958-.56 1.553-1.367.607-.81.977-1.685 1.113-2.623l.002-.215-.02-.084Zm10.81-1.015c.219.926-.014 1.803-.7 2.632-.688.818-1.574 1.355-2.657 1.61-1.073.254-2.024.186-2.855-.201-.834-.4-1.31-.847-1.427-1.344-.08-.338-.019-.532.184-.58.18-.042.6.145 1.26.561.248.144.562.26.94.35.39.087.777.085 1.161-.006.79-.186 1.442-.555 1.955-1.105.525-.553.73-1.066.619-1.54-.073-.305-.368-.646-.887-1.024a12.011 12.011 0 0 0-1.671-1.018 13.123 13.123 0 0 1-1.663-1.055c-.521-.39-.815-.725-.882-1.007a2.745 2.745 0 0 1-.044-.938c.038-.342.108-.603.208-.782.326-.589.903-1.196 1.732-1.82.84-.628 1.577-1.016 2.21-1.165.326-.078.628-.036.905.125.277.162.443.36.5.598.026.112-.071.23-.292.354-.221.124-.561.3-1.02.527-.45.213-.843.438-1.181.672-1.18.803-1.716 1.436-1.606 1.899.059.248.883.786 2.474 1.614.612.32 1.191.726 1.737 1.217.554.477.887.952 1 1.426Zm3.889.852c.05.214.2.292.448.233.43-.1.92-.342 1.474-.723.562-.395.877-.6.944-.616.203-.048.33.035.381.25.078.327-.171.785-.747 1.374-.564.586-1.123.944-1.676 1.074-.542.128-1.028.088-1.459-.12-.433-.22-.687-.487-.762-.803-.075-.316-.102-.733-.082-1.25.018-.528.056-1.223.114-2.082.068-.874.111-1.594.133-2.159-.502.25-.842.396-1.023.438-.18.043-.383-.005-.606-.143-.215-.151-.342-.312-.382-.481-.065-.271.608-.704 2.016-1.299-.019-.984-.114-1.838-.285-2.56-.08-.338-.007-.534.218-.588.192-.045.459.023.8.205.338.17.543.408.616.712.072.305.103.864.093 1.677.63-.209 1.137-.358 1.52-.449.678-.16 1.051-.093 1.12.2.04.17-.112.355-.458.555-.334.199-1.06.555-2.178 1.069-.026.947-.083 2.04-.171 3.276-.091 1.225-.107 1.961-.048 2.21Zm7.566-8.865c.508-.12 1.038.03 1.59.447.549.406.873.819.972 1.236.096.406.054.857-.126 1.353.175.137.278.268.307.392.075.316.13.875.165 1.677.047.8.081 1.321.104 1.566.033.243.056.44.068.592.01.14.014.283.012.426.021.293-.047.458-.205.495-.203.048-.414-.087-.632-.404-.21-.332-.393-.778-.55-1.337-.701 1.513-1.482 2.37-2.34 2.573-.519.122-1.084.023-1.697-.297-.603-.334-.961-.738-1.074-1.212-.16-.677-.11-1.57.152-2.681.258-1.122.69-2.165 1.296-3.13.605-.966 1.258-1.53 1.958-1.696Zm1.485 2.795c-.249-1.05-.582-1.524-1-1.426-.44.104-.879.541-1.316 1.312-.44.759-.77 1.582-.988 2.467-.22.886-.274 1.56-.164 2.023a.594.594 0 0 0 .349.418.962.962 0 0 0 .599.038c.53-.126 1.044-.622 1.542-1.49.495-.88.75-1.864.766-2.952-.006-.177.066-.302.216-.373l-.004-.017Z" fill="#2C2C2C"/><path fill-rule="evenodd" clip-rule="evenodd" d="M52.844 31.832c-.483.12-.865.487-1.025.96-3.045 9.004-11.576 15.49-21.63 15.49a22.766 22.766 0 0 1-15.725-6.271 1.46 1.46 0 0 0-1.35-.37c-1.022.252-1.408 1.489-.65 2.218A25.478 25.478 0 0 0 30.19 51c11.31 0 20.904-7.34 24.262-17.509.33-.998-.587-1.91-1.608-1.659Zm-46.171-9.28a1.446 1.446 0 0 0 1.063-1.155C9.67 10.776 18.985 2.718 30.19 2.718c7.285 0 13.771 3.407 17.95 8.709.35.445.924.66 1.474.523.933-.23 1.354-1.314.765-2.072C45.706 3.868 38.4 0 30.189 0 17.596 0 7.13 9.102 5.032 21.076c-.165.945.711 1.705 1.642 1.476Z" fill="#BBF330"/><path d="M68.596 8.497c-6.036 11.54-8.686 3.929-17.183 8.4.85-13.396 9.849-5.245 17.183-8.4Z" fill="#BBF330" stroke="#BBF330" stroke-linejoin="round"/></svg>